<svg width="20" height="20" viewBox="0 0 20 20" fill="none" xmlns="http://www.w3.org/2000/svg">
  <path fill-rule="evenodd" clip-rule="evenodd" d="M12.3657 10.625H11.597C11.2846 10.6256 10.9831 10.7398 10.7485 10.9462C10.514 11.1525 10.3624 11.4371 10.322 11.7469C10.3157 11.8008 10.3125 11.8551 10.3126 11.9094V12.1531C10.3121 12.173 10.3132 12.1928 10.3158 12.2125C10.3301 12.5425 10.4714 12.8543 10.7101 13.0826C10.9489 13.3109 11.2667 13.438 11.597 13.4375H12.2907C12.2907 13.4375 12.2907 13.4375 12.2907 13.4375C12.2231 13.6892 12.1375 13.9357 12.0344 14.175C11.7364 14.8907 11.2987 15.5398 10.7469 16.0844C10.0734 16.753 9.24956 17.2504 8.34428 17.5351C7.43901 17.8198 6.4787 17.8834 5.54379 17.7206C4.60889 17.5578 3.7266 17.1733 2.97085 16.5994C2.21509 16.0255 1.60786 15.2788 1.20003 14.4219L1.1969 14.4188C0.817756 13.6245 0.622298 12.7551 0.625028 11.875C0.625028 11.7063 0.631278 11.5375 0.646903 11.3719C0.645699 11.354 0.647818 11.336 0.653153 11.3188C0.780048 9.97742 1.35924 8.71906 2.29564 7.75029C3.23204 6.78152 4.47 6.15991 5.80628 5.98753C6.05691 5.95346 6.3096 5.93675 6.56253 5.93753C7.6247 5.93575 8.66765 6.22078 9.58129 6.76253L9.58151 6.76373L9.58219 6.76475L9.58321 6.76542L9.58441 6.76564C9.73827 6.85589 9.88742 6.95393 10.0313 7.05939C10.484 7.38252 10.8872 7.76993 11.2282 8.20939C11.5116 8.56455 11.7508 8.95281 11.9407 9.36564C11.9438 9.36876 11.9469 9.37189 11.9469 9.37501C12.0125 9.51251 12.075 9.65626 12.1282 9.80001C12.1875 9.96564 12.2438 10.1375 12.2907 10.3125C12.3188 10.4156 12.3469 10.5219 12.3657 10.625Z" fill="#0A42EA"/>
  <path opacity="0.1" d="M19.3596 5.18126C19.2502 5.07188 19.1564 4.97813 19.0627 4.88752C18.7908 4.61252 18.5658 4.39065 18.2377 4.06252L10.6971 2.61251C10.514 2.57716 10.3254 2.58234 10.1445 2.62769C9.96367 2.67304 9.79494 2.75746 9.65019 2.87501L5.80644 5.98751C4.47017 6.15989 3.23221 6.7815 2.29581 7.75026C1.35941 8.71903 0.780215 9.97739 0.65332 11.3188C0.801015 10.2281 1.27954 9.20903 2.02438 8.39881C2.76923 7.58859 3.74458 7.02622 4.81894 6.78751C5.18128 6.70881 5.55131 6.67107 5.92207 6.67501C6.79101 6.66747 7.64739 6.88265 8.40957 7.30001C9.46543 7.86514 10.3032 8.76557 10.7908 9.85938C10.3341 9.95773 9.92 10.1976 9.60749 10.5449C9.29498 10.8922 9.09997 11.3292 9.05019 11.7938C9.00367 12.3264 9.15377 12.8576 9.47216 13.2871C9.79055 13.7166 10.2552 14.0147 10.7783 14.125C10.2966 15.2153 9.46381 16.1129 8.41269 16.675H3.43457C2.47594 16.1714 1.69575 15.3847 1.2002 14.4219C1.60708 15.2797 2.21387 16.0273 2.96959 16.602C3.72532 17.1767 4.60792 17.5617 5.54326 17.7245C6.4786 17.8874 7.43937 17.8235 8.34487 17.5381C9.25037 17.2527 10.0742 16.7542 10.7471 16.0844C11.2988 15.5398 11.7365 14.8907 12.0346 14.175C12.1376 13.9357 12.2233 13.6892 12.2908 13.4375H15.8408C16.9325 13.439 18.0137 13.2244 19.0221 12.8063C19.0908 12.7781 19.1596 12.75 19.2283 12.7188L19.3533 12.2656C19.3564 11.0531 19.3627 7.36876 19.3596 5.18126ZM11.2596 8.17813L13.7846 8.46563C13.8207 8.47166 13.8546 8.48691 13.8831 8.5099C13.9115 8.5329 13.9336 8.56286 13.9471 8.59688L14.4283 9.80001H12.1127C12.0627 9.65626 12.0064 9.51563 11.9471 9.37501C11.9471 9.37188 11.9439 9.36876 11.9408 9.36563C11.7588 8.94558 11.5303 8.54726 11.2596 8.17813ZM18.1033 12.2031C17.1627 12.6125 16.2939 12.925 15.3971 12.925H11.2283C11.0187 12.9243 10.8153 12.854 10.6501 12.725C10.4849 12.596 10.3673 12.4157 10.3158 12.2125C10.2897 12.1105 10.2823 12.0046 10.2939 11.9C10.297 11.848 10.3064 11.7966 10.3221 11.7469C10.39 11.5401 10.5227 11.3607 10.7006 11.2352C10.8784 11.1097 11.092 11.0447 11.3096 11.05H15.3533C15.4549 11.0487 15.5546 11.0229 15.6439 10.9747C15.7333 10.9265 15.8097 10.8574 15.8665 10.7732C15.9233 10.689 15.9589 10.5924 15.9702 10.4915C15.9815 10.3906 15.9682 10.2884 15.9314 10.1938L15.1096 8.13438C15.0136 7.89498 14.8561 7.68514 14.6531 7.52602C14.4501 7.36691 14.2087 7.26415 13.9533 7.22813L9.88144 6.76563C9.05536 6.1321 8.09013 5.70465 7.06582 5.51876L9.59707 3.47501C9.67053 3.41416 9.75651 3.37029 9.84889 3.34652C9.94126 3.32275 10.0377 3.31968 10.1314 3.33751L17.6314 4.78126L18.1064 4.94063C18.1127 6.13438 18.1096 9.60626 18.1033 12.2031Z" fill="white" fill-opacity="0.2"/>
  <path d="M6.24989 10.111H8.12472C8.29048 10.111 8.44945 10.0452 8.56666 9.92797C8.68387 9.81076 8.74972 9.65179 8.74972 9.48603C8.74972 9.32027 8.68387 9.1613 8.56666 9.04409C8.44945 8.92688 8.29048 8.86103 8.12472 8.86103H7.18731V8.54853C7.18731 8.38278 7.12146 8.22383 7.00426 8.10663C6.88706 7.98943 6.72811 7.92358 6.56236 7.92358C6.39662 7.92358 6.23766 7.98943 6.12046 8.10663C6.00326 8.22383 5.93742 8.38278 5.93742 8.54853V8.88926C5.47395 8.9674 5.05677 9.21686 4.7686 9.58817C4.48043 9.95948 4.34231 10.4255 4.38164 10.8939C4.42096 11.3622 4.63485 11.7987 4.9809 12.1168C5.32695 12.4348 5.77988 12.6113 6.24989 12.611H6.87483C7.0406 12.611 7.19957 12.6769 7.31678 12.7941C7.43399 12.9113 7.49983 13.0703 7.49983 13.236C7.49983 13.4018 7.43399 13.5608 7.31678 13.678C7.19957 13.7952 7.0406 13.861 6.87483 13.861H5C4.83424 13.861 4.67527 13.9269 4.55806 14.0441C4.44085 14.1613 4.375 14.3203 4.375 14.486C4.375 14.6518 4.44085 14.8108 4.55806 14.928C4.67527 15.0452 4.83424 15.111 5 15.111H5.93742V15.4235C5.93742 15.5893 6.00326 15.7482 6.12046 15.8654C6.23766 15.9826 6.39662 16.0485 6.56236 16.0485C6.72811 16.0485 6.88706 15.9826 7.00426 15.8654C7.12146 15.7482 7.18731 15.5893 7.18731 15.4235V15.0828C7.65078 15.0046 8.06796 14.7552 8.35614 14.3839C8.64431 14.0126 8.78243 13.5465 8.7431 13.0782C8.70378 12.6098 8.48989 12.1733 8.14384 11.8552C7.79779 11.5372 7.34485 11.3608 6.87483 11.361H6.24989C6.08413 11.361 5.92516 11.2952 5.80795 11.178C5.69074 11.0607 5.62489 10.9018 5.62489 10.736C5.62489 10.5703 5.69074 10.4113 5.80795 10.2941C5.92516 10.1769 6.08413 10.111 6.24989 10.111V10.111Z" fill="white"/>
  <path d="M19.9996 4.62209C19.9996 4.40603 19.9248 4.19664 19.7879 4.02954C19.6509 3.86243 19.4603 3.74792 19.2485 3.70549C17.1845 3.28875 11.7901 2.26507 11.0084 2.11111C10.7358 2.05803 10.4548 2.06551 10.1853 2.13301C9.91591 2.20051 9.6646 2.32639 9.44918 2.50174L5.78702 5.46736C4.19673 5.66925 2.73369 6.44124 1.66944 7.64006C0.605199 8.83888 0.0120304 10.3831 3.1722e-05 11.9861C-0.00269324 12.8595 0.170167 13.7245 0.508342 14.5297C0.846516 15.335 1.3431 16.0641 1.9686 16.6736H0.663078C0.510688 16.67 0.361832 16.7198 0.242356 16.8145C0.12288 16.9091 0.0403299 17.0426 0.00903797 17.1918C-0.00624786 17.2816 -0.0017926 17.3736 0.0220937 17.4614C0.04598 17.5493 0.0887234 17.6309 0.147349 17.7005C0.205975 17.7702 0.279074 17.8262 0.36156 17.8647C0.444046 17.9033 0.533937 17.9233 0.624975 17.9236H13.0858C13.2382 17.9272 13.387 17.8774 13.5065 17.7827C13.626 17.6881 13.7085 17.5545 13.7398 17.4054C13.7551 17.3156 13.7506 17.2236 13.7267 17.1358C13.7029 17.0479 13.6601 16.9663 13.6015 16.8967C13.5429 16.827 13.4698 16.771 13.3873 16.7325C13.3048 16.6939 13.2149 16.6738 13.1238 16.6736H11.1522C11.8646 15.9719 12.4075 15.1168 12.7395 14.1736H16.0361C17.2922 14.1736 18.4483 13.7048 19.6201 13.183C19.7306 13.1336 19.8245 13.0534 19.8905 12.952C19.9565 12.8505 19.9917 12.7321 19.992 12.6111C19.993 12.0345 20.0015 6.92942 19.9996 4.62209ZM9.05136 16.6736H4.07252C3.21816 16.2253 2.50319 15.5512 2.00549 14.7247C1.50779 13.8982 1.24644 12.9509 1.24992 11.9861C1.24998 10.7657 1.67018 9.5826 2.43987 8.63557C3.20956 7.68854 4.28181 7.03536 5.47639 6.78582C6.67097 6.53629 7.91504 6.70562 8.99947 7.26534C10.0839 7.82506 10.9426 8.74106 11.4312 9.85935C10.9744 9.95727 10.5602 10.1968 10.2475 10.5439C9.93483 10.891 9.73966 11.3279 9.68978 11.7923C9.64356 12.325 9.79352 12.8561 10.1115 13.2859C10.4294 13.7157 10.8935 14.0145 11.4163 14.1262C10.936 15.2165 10.103 16.1137 9.05136 16.6736ZM18.7421 12.2017C17.8015 12.6111 16.9329 12.9236 16.0361 12.9236H11.8677C11.7372 12.9234 11.6082 12.8961 11.4889 12.8433C11.3696 12.7905 11.2625 12.7135 11.1746 12.617C11.0867 12.5206 11.0199 12.4069 10.9784 12.2832C10.9368 12.1595 10.9215 12.0285 10.9334 11.8986C10.9677 11.6565 11.0905 11.4356 11.278 11.2786C11.4655 11.1217 11.7046 11.0397 11.9489 11.0486H15.9923C16.0939 11.0474 16.1937 11.0216 16.2831 10.9735C16.3725 10.9253 16.4489 10.8561 16.5057 10.7719C16.5626 10.6878 16.5981 10.5911 16.6094 10.4901C16.6207 10.3892 16.6073 10.287 16.5704 10.1923L15.7486 8.13297C15.6526 7.89358 15.4952 7.68374 15.2922 7.52463C15.0892 7.36551 14.8479 7.26275 14.5925 7.22673L10.5213 6.76442C9.69436 6.13255 8.72932 5.70587 7.70544 5.51942L10.2366 3.4736C10.3101 3.41276 10.396 3.36889 10.4884 3.34512C10.5808 3.32135 10.6772 3.31827 10.7709 3.3361L18.2703 4.77985L18.7452 4.93922C18.7515 6.13298 18.7483 9.60485 18.7421 12.2017H18.7421ZM11.8999 8.17834L14.4237 8.46422C14.4598 8.47024 14.4938 8.48549 14.5222 8.50848C14.5507 8.53148 14.5727 8.56144 14.5862 8.59547L15.0674 9.79859H12.7508C12.5477 9.21989 12.261 8.67402 11.8999 8.17834Z" fill="#F4F4F4"/>
  <path d="M16.875 7.1875C17.2202 7.1875 17.5 6.90768 17.5 6.5625C17.5 6.21732 17.2202 5.9375 16.875 5.9375C16.5298 5.9375 16.25 6.21732 16.25 6.5625C16.25 6.90768 16.5298 7.1875 16.875 7.1875Z" fill="#F4F4F4"/>
</svg>
