<svg width="20" height="20" viewBox="0 0 20 20" fill="none" xmlns="http://www.w3.org/2000/svg">
  <g clip-path="url(#clip0_2077_3923)">
    <path d="M16.5625 7.1875C16.5625 12.1875 10 17.1875 10 17.1875C10 17.1875 3.4375 12.1875 3.4375 7.1875C3.4375 5.44702 4.1289 3.77782 5.35961 2.54711C6.59032 1.3164 8.25952 0.625 10 0.625C11.7405 0.625 13.4097 1.3164 14.6404 2.54711C15.8711 3.77782 16.5625 5.44702 16.5625 7.1875Z" fill="white" fill-opacity="0.2"/>
    <path d="M11.5625 19.375H8.4375L8.125 16.875H11.875L11.5625 19.375Z" fill="#0A42EA"/>
    <path d="M17.2923 10.8333H16.7714C16.7714 10.2808 16.5519 9.75089 16.1612 9.36019C15.7705 8.96949 15.2406 8.75 14.6881 8.75C14.1356 8.75 13.6057 8.96949 13.215 9.36019C12.8243 9.75089 12.6048 10.2808 12.6048 10.8333H12.0839C11.8101 10.833 11.539 10.8866 11.2859 10.9912C11.0328 11.0957 10.8029 11.2491 10.6091 11.4426C10.4154 11.6361 10.2617 11.8659 10.1569 12.1188C10.052 12.3717 9.99805 12.6429 9.99805 12.9167C9.99805 13.1905 10.052 13.4616 10.1569 13.7145C10.2617 13.9674 10.4154 14.1972 10.6091 14.3907C10.8029 14.5842 11.0328 14.7376 11.2859 14.8421C11.539 14.9467 11.8101 15.0003 12.0839 15H17.2923C17.5661 15.0003 17.8373 14.9467 18.0903 14.8421C18.3434 14.7376 18.5733 14.5842 18.7671 14.3907C18.9608 14.1972 19.1145 13.9674 19.2193 13.7145C19.3242 13.4616 19.3782 13.1905 19.3782 12.9167C19.3782 12.6429 19.3242 12.3717 19.2193 12.1188C19.1145 11.8659 18.9608 11.6361 18.7671 11.4426C18.5733 11.2491 18.3434 11.0957 18.0903 10.9912C17.8373 10.8866 17.5661 10.833 17.2923 10.8333Z" fill="#0A42EA"/>
    <path d="M5.72935 9.58334H5.36477C5.36477 9.19656 5.21112 8.82563 4.93763 8.55214C4.66414 8.27865 4.29321 8.125 3.90643 8.125C3.51966 8.125 3.14872 8.27865 2.87523 8.55214C2.60174 8.82563 2.4481 9.19656 2.4481 9.58334H2.08352C1.89183 9.58306 1.70196 9.62057 1.52478 9.69373C1.3476 9.76689 1.18658 9.87427 1.05094 10.0097C0.915293 10.1452 0.807682 10.306 0.73426 10.4831C0.660839 10.6602 0.623047 10.85 0.623047 11.0417C0.623047 11.2334 0.660839 11.4232 0.73426 11.6002C0.807682 11.7773 0.915293 11.9382 1.05094 12.0736C1.18658 12.2091 1.3476 12.3164 1.52478 12.3896C1.70196 12.4628 1.89183 12.5003 2.08352 12.5H5.72935C5.92104 12.5003 6.1109 12.4628 6.28808 12.3896C6.46526 12.3164 6.62628 12.2091 6.76193 12.0736C6.89757 11.9382 7.00518 11.7773 7.0786 11.6002C7.15202 11.4232 7.18982 11.2334 7.18982 11.0417C7.18982 10.85 7.15202 10.6602 7.0786 10.4831C7.00518 10.306 6.89757 10.1452 6.76193 10.0097C6.62628 9.87427 6.46526 9.76689 6.28808 9.69373C6.1109 9.62057 5.92104 9.58306 5.72935 9.58334Z" fill="#0A42EA"/>
    <path d="M13.75 7.18701C14.0952 7.18701 14.375 6.90719 14.375 6.56201C14.375 6.21683 14.0952 5.93701 13.75 5.93701C13.4048 5.93701 13.125 6.21683 13.125 6.56201C13.125 6.90719 13.4048 7.18701 13.75 7.18701Z" fill="#0A42EA"/>
    <path opacity="0.1" d="M2.08398 9.58445C1.71703 9.58414 1.36348 9.72238 1.09406 9.97152C0.824637 10.2207 0.659208 10.5623 0.630859 10.9282C0.659494 10.7289 0.75895 10.5465 0.911025 10.4146C1.0631 10.2826 1.25762 10.2098 1.45898 10.2095H1.82148C1.90357 10.2095 1.98485 10.1933 2.06069 10.1619C2.13653 10.1305 2.20543 10.0845 2.26347 10.0264C2.32152 9.9684 2.36755 9.89949 2.39895 9.82365C2.43035 9.74782 2.44651 9.66653 2.44648 9.58445H2.08398ZM5.27148 8.9657C5.14647 8.56993 4.90642 8.22036 4.58194 7.96156C4.25747 7.70276 3.86327 7.54645 3.44961 7.51257C3.46102 7.73666 3.48502 7.95993 3.52148 8.18132C3.22878 8.26038 2.96823 8.42923 2.77651 8.66411C2.58479 8.899 2.47155 9.18809 2.45273 9.4907C2.47657 9.27892 2.58058 9.08431 2.74341 8.94682C2.90625 8.80934 3.11554 8.73941 3.32832 8.75141C3.54109 8.76341 3.7412 8.85642 3.88754 9.01134C4.03389 9.16626 4.11536 9.37134 4.11523 9.58445C4.11521 9.66653 4.13136 9.74782 4.16277 9.82365C4.19417 9.89949 4.2402 9.9684 4.29824 10.0264C4.35629 10.0845 4.42519 10.1305 4.50103 10.1619C4.57687 10.1933 4.65815 10.2095 4.74023 10.2095H5.10273C5.2121 10.2095 5.3204 10.231 5.42144 10.2728C5.52248 10.3147 5.61429 10.376 5.69162 10.4534C5.76896 10.5307 5.8303 10.6225 5.87215 10.7236C5.91401 10.8246 5.93555 10.9329 5.93555 11.0423C5.93555 11.1516 5.91401 11.2599 5.87215 11.361C5.8303 11.462 5.76896 11.5538 5.69162 11.6312C5.61429 11.7085 5.52248 11.7698 5.42144 11.8117C5.3204 11.8535 5.2121 11.8751 5.10273 11.8751H1.45898C1.25731 11.8741 1.06272 11.8006 0.910693 11.6681C0.75867 11.5356 0.659353 11.3529 0.630859 11.1532C0.658537 11.5196 0.823663 11.862 1.09314 12.1118C1.36263 12.3615 1.71655 12.5002 2.08398 12.5001H5.48086C5.59961 12.6657 5.71836 12.8282 5.84023 12.9876C6.28282 12.8207 6.65535 12.508 6.89645 12.1011C7.13755 11.6941 7.23284 11.2172 7.16661 10.7489C7.10038 10.2805 6.87658 9.8487 6.5321 9.52457C6.18761 9.20044 5.74299 9.00332 5.27148 8.9657ZM19.3652 12.7032C19.3117 12.1902 19.07 11.7153 18.6868 11.3702C18.3035 11.025 17.806 10.8342 17.2902 10.8345H16.7715C16.7722 10.2893 16.5577 9.76598 16.1746 9.3782C16.4835 8.50937 16.6056 7.58517 16.533 6.66594C16.4605 5.7467 16.1949 4.85311 15.7535 4.0435C15.3122 3.23389 14.705 2.52648 13.9717 1.96745C13.2384 1.40841 12.3954 1.01033 11.4978 0.799198C10.6002 0.588064 9.6682 0.568624 8.76258 0.742146C7.85696 0.915668 6.99813 1.27825 6.24215 1.80622C5.48617 2.33419 4.85005 3.01567 4.37532 3.80617C3.9006 4.59667 3.59794 5.47841 3.48711 6.39382C3.6011 5.56659 3.88754 4.77252 4.32789 4.06301C4.76823 3.3535 5.35267 2.74438 6.04336 2.27507C5.16836 3.8657 4.99961 5.88132 4.99961 7.18757C4.99961 7.35333 5.06546 7.51231 5.18267 7.62952C5.29988 7.74673 5.45885 7.81257 5.62461 7.81257C5.79037 7.81257 5.94934 7.74673 6.06655 7.62952C6.18376 7.51231 6.24961 7.35333 6.24961 7.18757C6.24961 5.8782 6.45273 2.70945 8.34023 1.56882C8.56787 1.41028 8.82965 1.30757 9.10436 1.26903C9.37907 1.23048 9.65901 1.25717 9.92148 1.34694C10.9934 1.75944 11.7746 3.25945 12.1184 4.41882C12.1659 4.57755 12.2745 4.71094 12.4203 4.78972C12.5661 4.86851 12.7372 4.88627 12.896 4.83911C13.0549 4.79195 13.1885 4.68372 13.2677 4.53815C13.3469 4.39258 13.3651 4.22155 13.3184 4.06257C13.1164 3.383 12.8286 2.73193 12.4621 2.12507C13.3315 2.65357 14.0503 3.39684 14.5495 4.28344C15.0486 5.17004 15.3112 6.17014 15.3121 7.18757C15.3094 7.58395 15.2644 7.9789 15.1777 8.3657C14.8138 8.20107 14.418 8.11902 14.0186 8.12543C13.6192 8.13185 13.2262 8.22657 12.8677 8.40281C12.5093 8.57905 12.1943 8.83244 11.9453 9.14479C11.6963 9.45714 11.5196 9.82072 11.4277 10.2095C10.8005 10.216 10.195 10.4401 9.71479 10.8437C9.23457 11.2473 8.90946 11.8051 8.79504 12.4218C8.68062 13.0386 8.78401 13.6759 9.08752 14.2249C9.39104 14.7738 9.87582 15.2003 10.459 15.4313C10.0902 15.772 9.77461 16.0501 9.53711 16.2501H9.21523C8.39382 15.5563 7.61726 14.811 6.89023 14.0188C6.79158 13.9098 6.65772 13.839 6.51211 13.8188C7.45718 14.9234 8.49423 15.9458 9.61211 16.8751H8.12461L8.43711 19.3751H11.5621L11.8746 16.8845V16.8751H10.3871C11.0954 16.2859 11.7724 15.66 12.4152 15.0001H17.2902C17.8065 15.0002 18.3044 14.8089 18.6877 14.4631C19.071 14.1174 19.3124 13.6417 19.3652 13.1282C19.3777 12.9868 19.3777 12.8446 19.3652 12.7032ZM10.5402 17.5001L10.384 18.7501H8.36523L8.20898 17.5001H10.5402ZM16.6652 14.3751H11.459C11.2675 14.3751 11.078 14.3374 10.9011 14.2641C10.7242 14.1908 10.5635 14.0835 10.4282 13.9481C10.2928 13.8127 10.1854 13.652 10.1121 13.4751C10.0389 13.2983 10.0012 13.1087 10.0012 12.9173C10.0012 12.7258 10.0389 12.5363 10.1121 12.3594C10.1854 12.1825 10.2928 12.0218 10.4282 11.8864C10.5635 11.7511 10.7242 11.6437 10.9011 11.5704C11.078 11.4972 11.2675 11.4595 11.459 11.4595H11.9777C12.0598 11.4595 12.1411 11.4433 12.2169 11.4119C12.2928 11.3805 12.3617 11.3345 12.4197 11.2764C12.4778 11.2184 12.5238 11.1495 12.5552 11.0737C12.5866 10.9978 12.6028 10.9165 12.6027 10.8345C12.6027 10.4474 12.7565 10.0762 13.0302 9.80252C13.3039 9.52883 13.6751 9.37508 14.0621 9.37508C14.4492 9.37508 14.8204 9.52883 15.094 9.80252C15.3677 10.0762 15.5215 10.4474 15.5215 10.8345C15.5215 10.9165 15.5376 10.9978 15.569 11.0737C15.6004 11.1495 15.6465 11.2184 15.7045 11.2764C15.7625 11.3345 15.8314 11.3805 15.9073 11.4119C15.9831 11.4433 16.0644 11.4595 16.1465 11.4595H16.6652C16.8567 11.4595 17.0462 11.4972 17.2231 11.5704C17.4 11.6437 17.5607 11.7511 17.6961 11.8864C17.8314 12.0218 17.9388 12.1825 18.0121 12.3594C18.0853 12.5363 18.123 12.7258 18.123 12.9173C18.123 13.1087 18.0853 13.2983 18.0121 13.4751C17.9388 13.652 17.8314 13.8127 17.6961 13.9481C17.5607 14.0835 17.4 14.1908 17.2231 14.2641C17.0462 14.3374 16.8567 14.3751 16.6652 14.3751Z" fill="#F4F4F4"/>
    <path d="M17.323 10.208C17.2391 9.85676 17.0854 9.52595 16.8712 9.23523C17.0736 8.57107 17.1801 7.88137 17.1872 7.18708C17.1873 6.21778 16.9912 5.2585 16.6108 4.36697C16.2304 3.47544 15.6735 2.67011 14.9737 1.99944C14.2739 1.32877 13.4456 0.80663 12.5387 0.464458C11.6318 0.122287 10.665 -0.0328452 9.69662 0.0084C8.7282 0.0496452 7.77814 0.286415 6.90362 0.704457C6.0291 1.1225 5.24821 1.71317 4.60796 2.44091C3.9677 3.16866 3.48132 4.01843 3.17809 4.93907C2.87485 5.85972 2.76104 6.8322 2.84349 7.79798C2.4015 8.05956 2.0714 8.47482 1.91625 8.96442C1.37993 9.0076 0.881113 9.25659 0.524237 9.65926C0.167361 10.0619 -0.0198956 10.587 0.00167679 11.1247C0.0232491 11.6623 0.251977 12.1707 0.639969 12.5435C1.02796 12.9163 1.54513 13.1245 2.08318 13.1246H5.72881C6.26686 13.1245 6.78403 12.9163 7.17202 12.5435C7.56001 12.1707 7.78874 11.6623 7.81032 11.1247C7.83189 10.5871 7.64463 10.0619 7.28776 9.65926C6.93088 9.25659 6.43206 9.0076 5.89574 8.96442C5.77114 8.56902 5.53144 8.21977 5.20729 7.96132C4.88314 7.70287 4.48927 7.54697 4.07605 7.51356C4.01827 6.49051 4.22689 5.46996 4.68152 4.55166C5.13615 3.63335 5.82124 2.84869 6.66984 2.27436C5.79282 3.86418 5.62474 5.88148 5.62474 7.18708C5.62474 7.35284 5.69059 7.51181 5.8078 7.62902C5.92501 7.74623 6.08398 7.81208 6.24974 7.81208C6.4155 7.81208 6.57448 7.74623 6.69169 7.62902C6.8089 7.51181 6.87474 7.35284 6.87474 7.18708C6.87474 5.87802 7.0786 2.71 8.96642 1.56956C9.19389 1.41048 9.45573 1.30739 9.73059 1.26868C10.0055 1.22996 10.2856 1.25672 10.5481 1.34678C11.6172 1.76014 12.3993 3.25962 12.7442 4.41807C12.7915 4.57695 12.9 4.71053 13.0458 4.78943C13.1916 4.86832 13.3627 4.88607 13.5216 4.83876C13.6805 4.79145 13.8141 4.68296 13.893 4.53717C13.9719 4.39137 13.9896 4.2202 13.9423 4.06132C13.7401 3.38269 13.453 2.73229 13.0879 2.12555C13.9568 2.65425 14.6753 3.39745 15.1743 4.28381C15.6732 5.17017 15.936 6.16992 15.9372 7.18708C15.9337 7.58355 15.889 7.97858 15.804 8.36583C15.44 8.20097 15.044 8.11869 14.6445 8.1249C14.245 8.1311 13.8518 8.22564 13.4931 8.40172C13.1345 8.5778 12.8192 8.83107 12.5699 9.14336C12.3207 9.45565 12.1436 9.81923 12.0514 10.208C11.4244 10.215 10.8192 10.4395 10.3393 10.8432C9.85939 11.2468 9.53451 11.8046 9.42014 12.4212C9.30578 13.0378 9.40903 13.6749 9.71226 14.2238C10.0155 14.7727 10.4999 15.1993 11.0827 15.4308C10.7168 15.7725 10.3983 16.0505 10.163 16.2496H9.84096C9.01911 15.5557 8.24241 14.8101 7.51561 14.0172C7.46029 13.9566 7.39356 13.9074 7.31924 13.8726C7.24493 13.8377 7.16447 13.8179 7.08247 13.8141C7.00048 13.8104 6.91854 13.8228 6.84135 13.8507C6.76416 13.8786 6.69322 13.9215 6.63259 13.9768C6.51013 14.0885 6.43707 14.2443 6.42949 14.4099C6.42573 14.4919 6.43817 14.5738 6.46607 14.651C6.49398 14.7282 6.53683 14.7992 6.59215 14.8598C7.03153 15.3411 7.49791 15.8104 7.98322 16.2668C7.83311 16.3021 7.70131 16.3916 7.61301 16.518C7.52472 16.6444 7.48613 16.799 7.50463 16.9521L7.81713 19.4521C7.83599 19.6033 7.90943 19.7423 8.02362 19.8431C8.13782 19.944 8.28491 19.9996 8.43724 19.9996H11.5622C11.7146 19.9996 11.8617 19.944 11.9759 19.8431C12.0901 19.7423 12.1635 19.6032 12.1824 19.4521L12.4949 16.9521C12.5134 16.7993 12.475 16.6451 12.3871 16.5188C12.2992 16.3926 12.1678 16.3031 12.0182 16.2674C12.2277 16.0699 12.4486 15.8547 12.6767 15.6246H17.2913C18.0068 15.6245 18.6933 15.3413 19.2007 14.8369C19.7081 14.3324 19.9953 13.6476 19.9995 12.9321C20.0037 12.2165 19.7246 11.5284 19.2231 11.018C18.7216 10.5076 18.0385 10.2164 17.323 10.208L17.323 10.208ZM4.73943 9.58286C4.73944 9.74862 4.80529 9.90758 4.9225 10.0248C5.03971 10.142 5.19867 10.2079 5.36443 10.2079H5.72881C5.94983 10.2079 6.1618 10.2957 6.31808 10.4519C6.47437 10.6082 6.56217 10.8202 6.56217 11.0412C6.56217 11.2622 6.47437 11.4742 6.31808 11.6305C6.1618 11.7868 5.94983 11.8746 5.72881 11.8746H2.08318C1.86216 11.8746 1.65019 11.7868 1.49391 11.6305C1.33762 11.4742 1.24982 11.2622 1.24982 11.0412C1.24982 10.8202 1.33762 10.6082 1.49391 10.4519C1.65019 10.2957 1.86216 10.2079 2.08318 10.2079H2.44756C2.61331 10.2078 2.77228 10.142 2.88949 10.0248C3.0067 9.90758 3.07255 9.74862 3.07256 9.58286C3.07256 9.36182 3.16037 9.14983 3.31666 8.99353C3.47296 8.83723 3.68495 8.74942 3.90599 8.74942C4.12704 8.74942 4.33902 8.83723 4.49532 8.99353C4.65162 9.14983 4.73943 9.36182 4.73943 9.58286ZM11.0105 18.7496H8.989L8.83275 17.4996H11.1667L11.0105 18.7496ZM17.2913 14.3746H12.0832C11.6964 14.3746 11.3255 14.2209 11.052 13.9474C10.7785 13.6739 10.6248 13.303 10.6248 12.9162C10.6248 12.5294 10.7785 12.1585 11.052 11.885C11.3255 11.6115 11.6964 11.4579 12.0832 11.4579H12.6038C12.7696 11.4578 12.9285 11.392 13.0457 11.2748C13.1629 11.1576 13.2288 10.9986 13.2288 10.8329C13.2288 10.4461 13.3825 10.0751 13.656 9.80159C13.9295 9.52808 14.3004 9.37442 14.6872 9.37442C15.074 9.37442 15.445 9.52808 15.7185 9.80159C15.992 10.0751 16.1457 10.4461 16.1457 10.8329C16.1457 10.9986 16.2115 11.1576 16.3287 11.2748C16.446 11.392 16.6049 11.4579 16.7707 11.4579H17.2913C17.6781 11.4579 18.049 11.6115 18.3225 11.885C18.596 12.1585 18.7497 12.5294 18.7497 12.9162C18.7497 13.303 18.596 13.6739 18.3225 13.9474C18.049 14.2209 17.6781 14.3746 17.2913 14.3746H17.2913Z" fill="#F4F4F4"/>
  </g>
  <defs>
    <clipPath id="clip0_2077_3923">
      <rect width="20" height="20" fill="white"/>
    </clipPath>
  </defs>
</svg>

